<svg xmlns="http://www.w3.org/2000/svg"><symbol id="mars-1" viewBox="0 0 256 256"><path d="M96.8 157h20.7v13.04H96.8zm-17.4 0h13.2v13.04H79.4zm48.8-86.3c-24.2 0-44.5 14.7-45.5 41.4h91.1c-1.1-26.7-21.4-41.4-45.6-41.4z"/><path d="M128.2 1.6l-109.1 63v126l109.1 63 109.1-63v-126zm65.4 153.3a2 2 0 0 1-2.1 2.1h-10.3v13h10.3a2.1 2.1 0 1 1 0 4.1H64.9a2.1 2.1 0 0 1 0-4.1h10.3v-13H64.9a2 2 0 0 1-2.1-2.1v-40.8a2 2 0 0 1 2.1-2.1h13.6c1-29.4 23-45.5 49.7-45.5s48.6 16.1 49.7 45.5h13.7a2 2 0 0 1 2.1 2.1z"/><path d="M67 152.8h122.5v-36.6H67zm60.2-14.1h50.5a2.1 2.1 0 0 1 0 4.1h-50.5a2.1 2.1 0 1 1 0-4.1zm-5.6 18.3h13.2v13.04h-13.2zm42.2 0H177v13.04h-13.2zm-24.8 0h20.7v13.04H139z"/></symbol><symbol id="mars-2" viewBox="0 0 256 256"><path d="M97.5 149.6H83.8l-18.2 21.5 2.9 4.2 35-18.4-6-7.3zm73.7-19a50 50 0 0 0 2.5-15.7 44.8 44.8 0 0 0-89.6 0c0 5.4.4 11 2.5 15.7zm-84.5 39.9h28.2l-8.5-10.3-19.7 10.3zm-14.5-35.8h113.2v10.76H72.2zm30.7 14.9l17.4 20.9h14.9l17.3-20.9h-49.6zm55 0l-6.2 7.3 35.2 18.4 2.9-4-18.2-21.7h-13.7z"/><path d="M127.7 2.1l-109.1 63v126l109.1 63 109.1-63v-126zm66.2 170.3l-4.8 6.8a2.2 2.2 0 0 1-2.7.6l-9.9-5.2H78.7l-9.9 5.2a2.3 2.3 0 0 1-2.7-.6l-4.8-6.8a2.2 2.2 0 0 1 .2-2.5l17.2-20.3h-8.5a2 2 0 0 1-2.1-2.1v-14.9a2 2 0 0 1 2.1-2.1h12a57.8 57.8 0 0 1-2.3-15.7 48.9 48.9 0 0 1 97.9 0 50.8 50.8 0 0 1-2.3 15.7h12a2 2 0 0 1 2.1 2.1v14.9a2 2 0 0 1-2.1 2.1H177l17 20.3a2.2 2.2 0 0 1-.1 2.5z"/><path d="M140.5 170.5h28.2L149 160.2l-8.5 10.3z"/></symbol><symbol id="mars-3" viewBox="0 0 256 256"><path d="M126 127.1V85.3l-29.8 41.8H126zm-55.6 19.7h55.7v22.97H70.4zM124 81.2c-26.5 1.7-48.6 20.9-55 45.9h22.1zm6.2-.2v46.1h57.1A61.5 61.5 0 0 0 130.2 81zm-71.6 50.3h139.1v11.38H58.6z"/><path d="M128.1 1.3L19 64.3v126l109.1 63 109.1-63v-126zm89.2 145.4H190v25a2 2 0 0 1-2.1 2.1H68.3a2 2 0 0 1-2.1-2.1v-25H38.9a2.1 2.1 0 0 1 0-4.1h15.5v-13.4a2 2 0 0 1 2.1-2.1h8.1a65.6 65.6 0 0 1 63.3-50.3c.2-.2.4-.2.8 0 30.6.2 56.1 21.7 62.9 50.3h8.1a2 2 0 0 1 2.1 2.1v13.5h15.5a2.1 2.1 0 1 1 0 4.1z"/><path d="M130.2 146.8h9.3v22.97h-9.3zm13.4 0h42.2v22.97h-42.2z"/></symbol></svg>