<svg xmlns="http://www.w3.org/2000/svg"><symbol id="mars-1" viewBox="0 0 256 256"><path d="M128.2 1.6l109.1 63v126l-109.1 63-109.1-63v-126l109.1-63z"/><path fill="#fff" d="M64.9 174.2a2.1 2.1 0 0 1 0-4.1h10.3V157H64.9a2 2 0 0 1-2.1-2.1v-40.8a2 2 0 0 1 2.1-2.1h13.6c1-29.4 23-45.5 49.7-45.5s48.6 16.1 49.7 45.5h13.7a2 2 0 0 1 2.1 2.1v40.8a2 2 0 0 1-2.1 2.1h-10.4v13h10.3a2.1 2.1 0 1 1 0 4.1zm2.1-58v36.6h122.5v-36.6zM79.4 157v13h13.2v-13zm3.3-44.9h91.1c-1-26.7-21.3-41.4-45.5-41.4s-44.6 14.7-45.6 41.4zM96.8 157v13h20.7v-13zm24.8 0v13h13.2v-13zm56.1-14.1h-50.5a2.1 2.1 0 1 1 0-4.1h50.5a2.1 2.1 0 0 1 0 4.1zM139 157v13h20.7v-13zm24.8 0v13H177v-13z"/></symbol><symbol id="mars-2" viewBox="0 0 256 256"><path d="M127.7 2.1l109.1 63v126l-109.1 63-109.1-63v-126l109.1-63z"/><path fill="#fff" d="M66 179.2l-4.8-6.8a2.2 2.2 0 0 1 .2-2.5l17.2-20.3h-8.4a2 2 0 0 1-2.1-2.1v-14.9a2 2 0 0 1 2.1-2.1h12a57.8 57.8 0 0 1-2.3-15.7 48.9 48.9 0 0 1 97.9 0 50.8 50.8 0 0 1-2.3 15.7h12a2 2 0 0 1 2.1 2.1v14.9a2 2 0 0 1-2.1 2.1H177l17 20.3a2.2 2.2 0 0 1 0 2.5l-4.8 6.8a2.2 2.2 0 0 1-2.7.6l-9.9-5.2H78.7l-9.9 5.2a2.3 2.3 0 0 1-2.8-.6zm31.5-29.6H83.8l-18.2 21.5 2.9 4.1 35-18.4zm-25.3-14.9v10.8h113.2v-10.8zm14.3-4.1h84.6a50 50 0 0 0 2.5-15.7 44.8 44.8 0 0 0-89.6 0c0 5.3.5 10.9 2.5 15.7zm19.9 29.6l-19.7 10.3h28.1zm-3.5-10.6l17.4 20.9h14.9l17.4-20.9zm46.1 10.6l-8.5 10.3h28.1zm22.6-10.6h-13.7l-6.2 7.2 35.2 18.4 2.9-3.9z"/></symbol><symbol id="mars-3" viewBox="0 0 256 256"><path d="M128.1 1.3l109.1 63v126l-109.1 63-109.1-63v-126l109.1-63z"/><path fill="#fff" d="M68.3 173.9a2 2 0 0 1-2.1-2.1v-25H38.9a2.1 2.1 0 0 1 0-4.1h15.5v-13.5a2 2 0 0 1 2.1-2.1h8.1a65.6 65.6 0 0 1 63.3-50.3c.2-.2.4-.2.8 0 30.6.2 56.1 21.7 62.9 50.3h8.1a2 2 0 0 1 2.1 2.1v13.5h15.5a2.1 2.1 0 1 1 0 4.1H190v25a2 2 0 0 1-2.1 2.1zm-9.7-42.6v11.4h139v-11.4zM124 81.2c-26.5 1.7-48.6 20.9-55 45.9h22.1zm-53.6 65.6v23H126v-23zM126 85.3l-29.8 41.8H126zm4.1-4.3v46.1h57.1a61.5 61.5 0 0 0-57-46.1zm0 65.8v23h9.3v-23zm13.5 0v23h42.2v-23z"/></symbol></svg>